<svg xmlns="http://www.w3.org/2000/svg" width="87" height="92" viewBox="0 0 87 92" fill="none"><g clip-path="url(#clip0_52_12623)"><path d="M87 43.2406L43.5008 0L0 43.2406L2.79815 46.0008L0 48.7594L43.5008 92L87.0016 48.7594L84.2034 45.9992L87.0016 43.239L87 43.2406ZM1.29643 43.2406L43.5008 1.28811L85.7051 43.2406L83.5576 45.3742L43.5008 5.56172L3.444 45.3567L1.29643 43.2406ZM82.907 46.0008L43.5008 85.1565L4.093 46.0008L43.5008 6.84507L82.907 46.0008ZM85.7051 48.7594L43.5008 90.7119L1.29643 48.7594L3.444 46.6258L43.5008 86.4383L83.5576 46.6433L85.7051 48.7594Z" fill="#AA73EF"></path><path d="M21.9746 37.8789H18.3253V25.6641H14.5039V22.6104H25.7944V25.6641H21.973V37.8789H21.9746ZM37.3439 22.6104L39.9952 25.2707V30.8768L38.345 32.5567L40.8179 37.8789H36.7375L34.9358 33.5593H31.397V37.8789H27.7477V22.6104H37.3439ZM31.3986 25.534V30.6388H36.3475V25.534H31.3986ZM45.0767 37.8789L42.4254 35.2186V22.6104H46.0747V34.565H50.8056V22.6104H54.4549V35.2186L51.8068 37.8789H45.0767ZM60.5991 37.8789H57.0178V22.6104H61.4029L64.4426 29.1112L67.4824 22.6104H71.8675V37.8789H68.2861V27.279L65.2243 33.6037H63.6626L60.6007 27.279V37.8789H60.5991Z" fill="#F2F2F2"></path><path fill-rule="evenodd" clip-rule="evenodd" d="M14.1875 22.292H26.1112V25.9818H22.2898V37.8786H21.9748V38.1967H18.0089V25.9818H14.1875V22.292ZM21.6566 37.5605H18.6421V25.3457H14.8207V22.9281H25.478V25.3457H21.6566V37.5605ZM27.4313 22.292H37.4751L40.312 25.1385V31.007L38.7253 32.6224L41.3153 38.1967H36.5271L34.7253 33.8771H31.7138V38.1967H27.4313V22.292ZM28.0645 22.9281V37.5605H31.0806V33.2409H35.1466L36.9483 37.5605H40.3209L37.9652 32.4905L39.6788 30.746V25.4022L37.213 22.9281H28.0645ZM42.109 22.292H46.3915V34.2467H50.4892V22.292H54.7717V35.3501L51.9381 38.1967H44.9458L42.109 35.3502V22.292ZM42.7422 22.9281V35.0865L45.2079 37.5605H51.6758L54.1385 35.0866V22.9281H51.1224V34.8828H45.7583V22.9281H42.7422ZM56.7014 22.292H61.6042L64.4429 28.3628L67.2815 22.292H72.1843V38.1967H67.9697V28.6599L65.4226 33.9215H63.4647L60.9175 28.6599V38.1967H56.7014V22.292ZM57.3346 22.9281V37.5605H60.2843V25.8974L63.8609 33.2854H65.0264L68.603 25.8974V37.5605H71.5511V22.9281H67.6837L64.4429 29.859L61.202 22.9281H57.3346ZM31.0822 25.2156H36.6643V30.9566H31.0822V25.2156ZM31.7154 25.8517V30.3205H36.0311V25.8517H31.7154Z" fill="#AA73EF"></path><path d="M39.49 70.1105H38.3594V68.9477H39.49V70.1105ZM42.9719 70.1105H40.6096L39.539 65.0215H40.8417L41.5649 69.0048H42.015L42.7382 65.0215H44.0409L42.9703 70.1105H42.9719ZM45.5963 70.1105H44.4689V65.0215H45.62L47.5671 68.2592V65.0215H48.6977V70.1105H47.5434L45.5963 66.8727V70.1105Z" fill="#01EEF9"></path><path d="M32.8167 60.6432H25.7392L22.5273 45.3746H26.4356L28.6068 57.3293H29.9522L32.1235 45.3746H36.0317L32.8167 60.6432ZM47.0822 45.3746L49.7335 48.0349V54.7119L47.0822 57.3722H41.437V60.6432H37.7908V45.3746H47.0822ZM41.437 48.2983V54.4485H46.0842V48.2983H41.437ZM61.2166 60.6432H52.0105V57.4594H60.0892V54.6008L51.7926 53.8806V47.9033L54.3144 45.373H63.5174V48.5568H55.4419V51.1965L63.7353 51.9167V58.1114L61.2166 60.6416V60.6432Z" fill="#F2F2F2"></path><path fill-rule="evenodd" clip-rule="evenodd" d="M54.1833 45.0547H63.8339V48.8746H55.7584V50.9045L64.0518 51.6247V58.2428L61.5331 60.7731V60.961H51.6938V57.141H59.7724V54.8923L51.4759 54.1721V47.7711L54.1833 45.0547ZM54.4453 45.6908L52.1091 48.0348V53.5885L60.4057 54.3087V57.7772H52.327V60.3248H61.0838L63.4186 57.9793V52.2082L55.1252 51.488V48.2385H63.2006V45.6908H54.4453ZM22.1367 45.0563H26.6995L28.8708 57.011H29.688L31.8593 45.0563H36.4222L33.0732 60.961H25.4824L22.1367 45.0563ZM22.9177 45.6924L25.9958 60.3248H32.5599L35.641 45.6924H32.3874L30.2162 57.6471H28.3427L26.1714 45.6924H22.9177ZM37.4741 45.0563H47.2131L50.05 47.9028V54.8434L47.2131 57.6899H41.7534V60.961H37.4741V45.0563ZM38.1073 45.6924V60.3248H41.1202V57.0538H46.951L49.4168 54.5797V48.1665L46.9511 45.6924H38.1073ZM41.1202 47.9799H46.4007V54.7663H41.1202V47.9799ZM41.7534 48.616V54.1302H45.7675V48.616H41.7534Z" fill="#AA73EF"></path></g><defs><clipPath id="clip0_52_12623"><rect width="87" height="92" fill="white"></rect></clipPath></defs></svg>